<svg width="576" height="133" viewBox="0 0 576 133" fill="none" xmlns="http://www.w3.org/2000/svg">
<path d="M0.39 130V3.99999H49.26C58.5 3.99999 66.69 5.61999 73.83 8.85999C80.97 12.04 86.58 16.69 90.66 22.81C94.74 28.87 96.78 36.16 96.78 44.68C96.78 53.38 94.89 60.76 91.11 66.82C87.33 72.82 81.84 77.41 74.64 80.59C67.5 83.71 58.83 85.27 48.63 85.27H27.03V130H0.39ZM27.03 62.86H48.18C55.08 62.86 60.45 61.45 64.29 58.63C68.19 55.81 70.14 51.34 70.14 45.22C70.14 39.04 68.16 34.45 64.2 31.45C60.24 28.45 54.96 26.95 48.36 26.95H27.03V62.86ZM147.764 132.7C137.984 132.7 129.314 130.51 121.754 126.13C114.194 121.75 108.254 115.93 103.934 108.67C99.6736 101.35 97.5436 93.31 97.5436 84.55C97.5436 78.13 98.7736 72.04 101.234 66.28C103.694 60.46 107.174 55.33 111.674 50.89C116.174 46.39 121.484 42.85 127.604 40.27C133.724 37.69 140.444 36.4 147.764 36.4C157.544 36.4 166.184 38.59 173.684 42.97C181.244 47.35 187.154 53.2 191.414 60.52C195.734 67.78 197.894 75.79 197.894 84.55C197.894 90.91 196.664 97 194.204 102.82C191.744 108.64 188.264 113.8 183.764 118.3C179.324 122.74 174.044 126.25 167.924 128.83C161.804 131.41 155.084 132.7 147.764 132.7ZM147.764 109.93C152.384 109.93 156.524 108.91 160.184 106.87C163.844 104.77 166.724 101.83 168.824 98.05C170.924 94.21 171.974 89.71 171.974 84.55C171.974 79.33 170.924 74.83 168.824 71.05C166.784 67.27 163.934 64.36 160.274 62.32C156.614 60.22 152.444 59.17 147.764 59.17C143.084 59.17 138.884 60.22 135.164 62.32C131.504 64.36 128.624 67.27 126.524 71.05C124.484 74.83 123.464 79.33 123.464 84.55C123.464 89.77 124.514 94.27 126.614 98.05C128.714 101.83 131.594 104.77 135.254 106.87C138.914 108.91 143.084 109.93 147.764 109.93ZM205.132 130V39.1H231.412V49.36C234.892 44.8 239.002 41.5 243.742 39.46C248.542 37.42 253.552 36.4 258.772 36.4C267.232 36.4 274.192 38.08 279.652 41.44C285.172 44.74 289.252 49.03 291.892 54.31C294.592 59.59 295.942 65.14 295.942 70.96V130H269.662V79.15C269.662 73.39 268.042 68.8 264.802 65.38C261.622 61.96 257.002 60.25 250.942 60.25C247.102 60.25 243.712 61.12 240.772 62.86C237.832 64.54 235.522 66.91 233.842 69.97C232.222 73.03 231.412 76.57 231.412 80.59V130H205.132ZM347.71 132.7C338.95 132.7 331.15 130.69 324.31 126.67C317.53 122.59 312.16 116.92 308.2 109.66C304.3 102.4 302.35 94.03 302.35 84.55C302.35 77.77 303.46 71.47 305.68 65.65C307.96 59.83 311.14 54.73 315.22 50.35C319.3 45.97 324.13 42.55 329.71 40.09C335.29 37.63 341.44 36.4 348.16 36.4C355.54 36.4 362.08 37.87 367.78 40.81C373.54 43.69 378.49 47.92 382.63 53.5L376.69 59.53V0.399995H402.97V130H380.11V106.96L383.71 112.9C380.89 118.72 376.42 123.49 370.3 127.21C364.18 130.87 356.65 132.7 347.71 132.7ZM352.57 109.93C357.19 109.93 361.33 108.91 364.99 106.87C368.65 104.77 371.53 101.83 373.63 98.05C375.73 94.27 376.78 89.77 376.78 84.55C376.78 79.33 375.73 74.83 373.63 71.05C371.59 67.27 368.74 64.36 365.08 62.32C361.42 60.22 357.25 59.17 352.57 59.17C347.89 59.17 343.72 60.22 340.06 62.32C336.4 64.36 333.52 67.27 331.42 71.05C329.32 74.83 328.27 79.33 328.27 84.55C328.27 89.77 329.32 94.27 331.42 98.05C333.52 101.83 336.4 104.77 340.06 106.87C343.72 108.91 347.89 109.93 352.57 109.93ZM460.152 132.7C450.252 132.7 441.552 130.69 434.052 126.67C426.552 122.65 420.702 117.04 416.502 109.84C412.302 102.64 410.202 94.21 410.202 84.55C410.202 77.53 411.402 71.08 413.802 65.2C416.262 59.32 419.682 54.25 424.062 49.99C428.502 45.67 433.692 42.34 439.632 40C445.632 37.6 452.202 36.4 459.342 36.4C467.202 36.4 474.162 37.78 480.222 40.54C486.342 43.3 491.412 47.17 495.432 52.15C499.452 57.07 502.242 62.86 503.802 69.52C505.422 76.18 505.572 83.41 504.252 91.21H434.592C434.592 95.41 435.672 99.07 437.832 102.19C440.052 105.31 443.142 107.77 447.102 109.57C451.122 111.31 455.802 112.18 461.142 112.18C466.422 112.18 471.462 111.46 476.262 110.02C481.062 108.58 485.592 106.39 489.852 103.45L498.582 121.45C495.702 123.67 492.102 125.65 487.782 127.39C483.462 129.07 478.872 130.36 474.012 131.26C469.212 132.22 464.592 132.7 460.152 132.7ZM436.122 73.12H479.052C478.872 67.78 476.982 63.55 473.382 60.43C469.842 57.31 464.952 55.75 458.712 55.75C452.472 55.75 447.282 57.31 443.142 60.43C439.062 63.55 436.722 67.78 436.122 73.12ZM512.517 130V39.1H538.797V50.35C541.737 45.31 545.517 41.71 550.137 39.55C554.757 37.39 559.797 36.31 565.257 36.31C567.177 36.31 568.947 36.43 570.567 36.67C572.187 36.85 573.777 37.09 575.337 37.39L572.097 64.48C570.177 63.76 568.137 63.22 565.977 62.86C563.817 62.44 561.687 62.23 559.587 62.23C553.527 62.23 548.547 64 544.647 67.54C540.747 71.08 538.797 76.12 538.797 82.66V130H512.517Z" fill="white"/>
</svg>
